<?xml version="1.0" encoding="UTF-8"?>
<svg id="Calque_1" data-name="Calque 1" xmlns="http://www.w3.org/2000/svg" xmlns:xlink="http://www.w3.org/1999/xlink" viewBox="0 0 1270.99 1029.13">
  <defs>
    <style>
      .cls-1 {
        letter-spacing: -.02em;
      }

      .cls-2 {
        letter-spacing: -.02em;
      }

      .cls-3 {
        letter-spacing: 0em;
      }

      .cls-4 {
        font-size: 10.1px;
      }

      .cls-4, .cls-5, .cls-6, .cls-7, .cls-8, .cls-9, .cls-10 {
        fill: #fff;
      }

      .cls-4, .cls-5, .cls-7, .cls-8, .cls-9, .cls-10 {
        font-family: RussoOne-Regular, 'Russo One';
      }

      .cls-5 {
        font-size: 10.21px;
      }

      .cls-11 {
        letter-spacing: -.02em;
      }

      .cls-12 {
        letter-spacing: -.01em;
      }

      .cls-7 {
        font-size: 9.84px;
      }

      .cls-13 {
        letter-spacing: 0em;
      }

      .cls-14 {
        letter-spacing: -.02em;
      }

      .cls-15 {
        letter-spacing: 0em;
      }

      .cls-16 {
        letter-spacing: -.04em;
      }

      .cls-17 {
        letter-spacing: 0em;
      }

      .cls-18 {
        letter-spacing: -.02em;
      }

      .cls-19 {
        font-family: LeMurmure-Regular, 'Le Murmure';
        font-size: 88.04px;
      }

      .cls-20 {
        letter-spacing: 0em;
      }

      .cls-8 {
        font-size: 11.01px;
      }

      .cls-21 {
        letter-spacing: -.02em;
      }

      .cls-22 {
        letter-spacing: -.02em;
      }

      .cls-23 {
        letter-spacing: -.01em;
      }

      .cls-24 {
        letter-spacing: -.02em;
      }

      .cls-25 {
        letter-spacing: -.02em;
      }

      .cls-26 {
        fill: #c33;
      }

      .cls-27 {
        letter-spacing: -.04em;
      }

      .cls-9 {
        font-size: 11.06px;
      }

      .cls-28 {
        letter-spacing: -.01em;
      }

      .cls-10 {
        font-size: 10px;
      }
    </style>
  </defs>
  <g id="Calque_2" data-name="Calque 2">
    <path d="M506.02,811.08l-94,40v133.76l713,.24v-127.82l-156,54.82-107-51-117,32-38,14-70-33-72,7-59-70Z"/>
  </g>
  <g>
    <text class="cls-4" transform="translate(418.84 858.74) rotate(-23.24)"><tspan x="0" y="0">Ce</tspan><tspan class="cls-25" x="12.33" y="0">t</tspan><tspan class="cls-23" x="16.57" y="0">t</tspan><tspan x="20.92" y="0">e </tspan><tspan class="cls-1" x="30.01" y="0">t</tspan><tspan x="34.25" y="0">ypo­g</tspan><tspan class="cls-16" x="59.01" y="0">r</tspan><tspan x="63.25" y="0">a­phie</tspan></text>
    <text class="cls-10" transform="translate(505.04 824.59) rotate(49)"><tspan x="0" y="0">s’accompagne</tspan></text>
    <text class="cls-10" transform="translate(554.5 886.25) rotate(27.98)"><tspan x="0" y="0">de</tspan></text>
    <text class="cls-10" transform="translate(573.85 890.4) rotate(-7.55)"><tspan x="0" y="0">nom­b</tspan><tspan class="cls-18" x="28.05" y="0">r</tspan><tspan x="32.45" y="0">euses</tspan></text>
    <text class="cls-10" transform="translate(636.85 882.91) rotate(27.98)"><tspan class="cls-14" x="0" y="0">v</tspan><tspan x="5.6" y="0">arian</tspan><tspan class="cls-28" x="31.6" y="0">t</tspan><tspan x="35.9" y="0">es</tspan></text>
    <text class="cls-10" transform="translate(681.09 906.92) rotate(27.98)"><tspan x="0" y="0">de</tspan></text>
    <text class="cls-9" transform="translate(712.7 917.8) rotate(-19.92) scale(.9 1)"><tspan x="0" y="0">g</tspan><tspan class="cls-27" x="6.86" y="0">l</tspan><tspan x="10.18" y="0">yphes</tspan></text>
    <text class="cls-5" transform="translate(750.05 904.94) rotate(-16.93) scale(.98 1)"><tspan x="0" y="0" xml:space="preserve"> des le</tspan><tspan class="cls-2" x="34.21" y="0">t</tspan><tspan x="38.5" y="0">t</tspan><tspan class="cls-21" x="42.99" y="0">r</tspan><tspan class="cls-17" x="47.48" y="0">es</tspan></text>
    <text class="cls-10" transform="translate(897.1 888.96) rotate(27.98)"><tspan x="0" y="0">enco</tspan><tspan class="cls-18" x="24.1" y="0">r</tspan><tspan x="28.5" y="0">e plus </tspan></text>
    <text class="cls-8" transform="translate(1004.97 914.24) rotate(-19.23) scale(.82 1)"><tspan x="0" y="0">Un po</tspan><tspan class="cls-13" x="32.37" y="0">t</tspan><tspan x="37.1" y="0">en­</tspan><tspan class="cls-24" x="50.64" y="0">t</tspan><tspan x="55.27" y="0">iel infi­ni </tspan></text>
    <text class="cls-7" transform="translate(810.03 886.88) rotate(-16.93) scale(.8 1)"><tspan x="0" y="0">a</tspan><tspan class="cls-11" x="5.86" y="0">l</tspan><tspan class="cls-20" x="9.01" y="0">t</tspan><tspan x="13.24" y="0">er­na­</tspan><tspan class="cls-22" x="35.73" y="0">t</tspan><tspan x="39.87" y="0">i</tspan><tspan class="cls-12" x="43.02" y="0">v</tspan><tspan class="cls-3" x="48.63" y="0">es</tspan></text>
    <text class="cls-10" transform="translate(858.43 871.81) rotate(25.26) scale(.8 1)"><tspan x="0" y="0">au des­</tspan><tspan class="cls-15" x="33.45" y="0">s</tspan><tspan x="39.15" y="0">in</tspan></text>
    <text class="cls-10" transform="translate(955.95 922.34)"><tspan x="0" y="0">ori­gi­nal .</tspan></text>
    <g>
      <path class="cls-6" d="M444.27,911.3c-.16-.09-2.41-2.15-2.78-2.5-.42-.39-4.49-5-5.03-4.39-.12,1.14.72,2.16.79,3.23.1,1.77-2.64,6.95-5.04,6.32-.54,1.63,2.43,1.37,3.49,1.67,1.13.32,2.87,1.63,4.06,2.13,1.29.55,3.04.82,4.12,1.3,1.19.53,5.1,6.69,6.22,8.24,3.85,5.32,7.98,10.85,11.3,16.59,1.06,1.83,3.16,3.02.5,4.93-1.3.93-3.61,2.51-5.03,3.24-.3.16-2.66.64-2.08,1.15,1.77.61,3.66-.01,5.28.02s1,2.16,1.19,3.2c.08.43.38.76.44,1.11,1.23,7.19,1.25,14.51,1.87,21.76l.78-.15c-.07-1.01.09-2.08,0-3.07-.51-5.31-1.11-13.02-.49-18.31.07-.61.33-1.65.74-2.1.71-.8,4.08-1.33,3.59-2.79-.92-.87-2.71-1.76-3.27-2.94-.38-.79-.26-1.7-.56-2.54-1.22-3.41-3.99-11.23-6.08-13.8-1.13-1.39-3.02-2.84-4.12-4.15s-2.35-3.42-3.4-4.86c-.38-.53-2.87-2.61-1-2.88,2.97.18,5.58.61,8.44,1.38,1.82.49,6.54,1.68,8.01,2.32.82.36,3.69,2.91,4.59,3.67,1.98,1.69,3.75,3.69,5.8,5.31l12.4-10.61c.3-.04.52.17.61.44.15.47-.37,3.92-.54,4.55-.29,1.08-1.66,3.07-1.75,3.96-.08.84.5,1.29.53,2.04.1,2.2-2.62,12.41-3.9,14.19-.71,1-2.38,2.32-2.95,3.24-.42.67-.38,1.38-.79,2.05-.48.77-1.85,1.7-2.3,2.34-1.76,2.44-1.04,5.33-1.16,8.14-.3,7.19.08,14.6-.76,21.7-.12,1.02.41,3.34-.72,3.67l-38.43.06c-.98-.3-2.78-.76-3.1-1.8-.27-.87-.23-5.02-.09-6.06.39-2.88,1.79-6.55,2.27-9.6.71-4.5.91-9.1,1.64-13.59.26-1.6,1.11-2.85.65-4.65-.1-.41-2.21-3.96-2.61-4.62-1.39-2.26-6.17-7.87-6.48-10-.06-.46.28-1.26.09-1.55-.14-.2-2.44-.37-3.33-1.44-.54-.65-2.13-3.23-2.63-4.08-.68-1.16-1.61-3.91-2.26-4.71-.41-.5-1.24-.55-1.69-1.15-.5-.69-.39-1.97-.91-2.45-.32-.3-.99-.33-1.42-.64-.73-.53-3.84-5-4.36-5.97-.88-1.65.47-2.12,1.19-3.4.35-.63.49-1.35.87-1.97.43-.72,1.63-1.72,1.79-2.09.27-.6.05-1.26.19-1.88.35-1.49,3.16-4.42,4.07-5.74,2.76-3.97,4.96-8.55,8.13-12.27,2.12-2.49,3.36-2.36,6.38-1.21,2.09.8,4.96,2.74,6.92,3.41.99.34,2.22.22,3.09.53.49.18,1.21.91,1.9,1.2,3.03,1.3,6.52,2.17,9.39,3.78,1.83,1.02,3.27,1.92,2.86,4.25-.16.89-.88,3.65-1.22,4.46-1.37,3.23-5.44,2.63-8.08,3.28-1.63.4-3.83,2.26-5.8,1.16Z"/>
      <path class="cls-6" d="M458.83,915.42c1.44-1.88,3.17-5.32,4.53-7.48,1.22-1.94,2.28-3.92,3.45-5.84,1.92-3.15,5.05-5.65,6.04-9.46.4-.28,1.29.17,1.74.36,3.89,1.67,6.72,5.24,10.11,7.7l.46,1.91c-2.68,5.95-7.12,10.93-11.36,15.77-1.15,1.75-3.69,5.47-5.59,6.3-.99.43-2.24-1.03-3.01-1.37-.57-.25-1.24-.2-1.67-.39-1.19-.54-6.62-3.22-6.88-4.24-.12-.46,1.03-2.14,1.39-2.65.23-.32.65-.41.8-.61Z"/>
      <path class="cls-6" d="M483.89,927.31c-.32.37-3.33,1.77-4.04,2.29-2.19,1.58-2.59,3.91-5.32,1.67-1.02-.84-1.34-1.76-2.01-2.51-.88-.99-2.77-1.79-2.51-3.29.04-.23,2.47-3.03,2.84-3.38.41-.38,1.06-.51,1.24-.7.29-.31.23-1.04.47-1.47.26-.48,2.61-3.53,3.1-4.13,1.96-2.42,4.79-4.8,6.71-7.23.58-.74,1.56-3.09,2.37-3.32,1.75-.51,3.2,2.55,4.21,3.69.89,1.01,3.8,3.71,4.02,4.77.33,1.58-1.1,3.01-2.09,4.15-2.85,3.29-6.24,6.27-8.98,9.48Z"/>
      <path class="cls-6" d="M462.61,904.48c-.16.16-.13.63-.33.83-.3.3-1.91,2.06-2.33,1.68-1.08-2.34.72-4.34.75-6.36.02-1.84-1.2-1.72-2.39-2.47-.48-.3-.76-.77-1.28-1.05-1.47-.78-3.87-1.29-5.45-2.04-1.71-1.09.75-3.54,1.35-4.53,1.68-2.81,3.46-5.57,4.94-8.49,1.87-1.34,2.57-1.33,4.58-.42,3.36,1.51,4.94,2.69,7.7,4.95,2.59,2.13,3.44,1.06,1.86,5.22-1.36,3.56-3.71,6.09-5.98,9-.45.58-.61,1.48-1.07,2.03-.54.65-2.03,1.31-2.36,1.64Z"/>
      <path class="cls-6" d="M457.29,879.18c.6.7-.81,3.56-1.25,4.4-1.21,2.29-4.39,7.25-6.04,9.2-.7.82-1.47.92-2.51.73-1.17-.22-2.36-1.39-3.22-1.68-.62-.21-1.42-.09-2.18-.41-2.21-.91-4.26-2.14-6.49-3-1.54-2.05,1.21-3.3,2.11-4.57.48-.67.53-1.56.88-2.22,1.12-2.1,3.55-6.13,5.1-7.81,2.21-2.41,3.48-1.49,5.91-.23,1.99,1.04,3.4,2.1,5.07,3.45.67.54,2.14,1.57,2.63,2.14Z"/>
      <path class="cls-6" d="M457.37,911.12c-.03,2.31-2.26,2.83-3.36,4.26-.82,1.07-1.56,3.73-3.23,3.9-.57.06-2.74-1.68-3.48-2.1-1.23-.71-3.48-.8-3.36-2.69,2.13-.57,4.26-1.74,6.38-2.28.62-.16,1.3.02,1.94-.13.8-.18,4.74-1.5,5.1-.97Z"/>
    </g>
    <g>
      <path class="cls-6" d="M1074.27,933.3c-.16-.09-2.41-2.15-2.78-2.5-.42-.39-4.49-5-5.03-4.39-.12,1.14.72,2.16.79,3.23.1,1.77-2.64,6.95-5.04,6.32-.54,1.63,2.43,1.37,3.49,1.67,1.13.32,2.87,1.63,4.06,2.13,1.29.55,3.04.82,4.12,1.3,1.19.53,5.1,6.69,6.22,8.24,3.85,5.32,7.98,10.85,11.3,16.59,1.06,1.83,3.16,3.02.5,4.93-1.3.93-3.61,2.51-5.03,3.24-.3.16-2.66.64-2.08,1.15,1.77.61,3.66-.01,5.28.02s1,2.16,1.19,3.2c.08.43.38.76.44,1.11,1.23,7.19,1.25,14.51,1.87,21.76l.78-.15c-.07-1.01.09-2.08,0-3.07-.51-5.31-1.11-13.02-.49-18.31.07-.61.33-1.65.74-2.1.71-.8,4.08-1.33,3.59-2.79-.92-.87-2.71-1.76-3.27-2.94-.38-.79-.26-1.7-.56-2.54-1.22-3.41-3.99-11.23-6.08-13.8-1.13-1.39-3.02-2.84-4.12-4.15-1.11-1.32-2.35-3.42-3.4-4.86-.38-.53-2.87-2.61-1-2.88,2.97.18,5.58.61,8.44,1.38,1.82.49,6.54,1.68,8.01,2.32.82.36,3.69,2.91,4.59,3.67,1.98,1.69,3.75,3.69,5.8,5.31l12.4-10.61c.3-.04.52.17.61.44.15.47-.37,3.92-.54,4.55-.29,1.08-1.66,3.07-1.75,3.96-.08.84.5,1.29.53,2.04.1,2.2-2.62,12.41-3.9,14.19-.71,1-2.38,2.32-2.95,3.24-.42.67-.38,1.38-.79,2.05-.48.77-1.85,1.7-2.3,2.34-1.76,2.44-1.04,5.33-1.16,8.14-.3,7.19.08,14.6-.76,21.7-.12,1.02.41,3.34-.72,3.67l-38.43.06c-.98-.3-2.78-.76-3.1-1.8-.27-.87-.23-5.02-.09-6.06.39-2.88,1.79-6.55,2.27-9.6.71-4.5.91-9.1,1.64-13.59.26-1.6,1.11-2.85.65-4.65-.1-.41-2.21-3.96-2.61-4.62-1.39-2.26-6.17-7.87-6.48-10-.06-.46.28-1.26.09-1.55-.14-.2-2.44-.37-3.33-1.44-.54-.65-2.13-3.23-2.63-4.08-.68-1.16-1.61-3.91-2.26-4.71-.41-.5-1.24-.55-1.69-1.15-.5-.69-.39-1.97-.91-2.45-.32-.3-.99-.33-1.42-.64-.73-.53-3.84-5-4.36-5.97-.88-1.65.47-2.12,1.19-3.4.35-.63.49-1.35.87-1.97.43-.72,1.63-1.72,1.79-2.09.27-.6.05-1.26.19-1.88.35-1.49,3.16-4.42,4.07-5.74,2.76-3.97,4.96-8.55,8.13-12.27,2.12-2.49,3.36-2.36,6.38-1.21,2.09.8,4.96,2.74,6.92,3.41.99.34,2.22.22,3.09.53.49.18,1.21.91,1.9,1.2,3.03,1.3,6.52,2.17,9.39,3.78,1.83,1.02,3.27,1.92,2.86,4.25-.16.89-.88,3.65-1.22,4.46-1.37,3.23-5.44,2.63-8.08,3.28-1.63.4-3.83,2.26-5.8,1.16Z"/>
      <path class="cls-6" d="M1088.83,937.42c1.44-1.88,3.17-5.32,4.53-7.48,1.22-1.94,2.28-3.92,3.45-5.84,1.92-3.15,5.05-5.65,6.04-9.46.4-.28,1.29.17,1.74.36,3.89,1.67,6.72,5.24,10.11,7.7l.46,1.91c-2.68,5.95-7.12,10.93-11.36,15.77-1.15,1.75-3.69,5.47-5.59,6.3-.99.43-2.24-1.03-3.01-1.37-.57-.25-1.24-.2-1.67-.39-1.19-.54-6.62-3.22-6.88-4.24-.12-.46,1.03-2.14,1.39-2.65.23-.32.65-.41.8-.61Z"/>
      <path class="cls-6" d="M1113.89,949.31c-.32.37-3.33,1.77-4.04,2.29-2.19,1.58-2.59,3.91-5.32,1.67-1.02-.84-1.34-1.76-2.01-2.51-.88-.99-2.77-1.79-2.51-3.29.04-.23,2.47-3.03,2.84-3.38.41-.38,1.06-.51,1.24-.7.29-.31.23-1.04.47-1.47.26-.48,2.61-3.53,3.1-4.13,1.96-2.42,4.79-4.8,6.71-7.23.58-.74,1.56-3.09,2.37-3.32,1.75-.51,3.2,2.55,4.21,3.69.89,1.01,3.8,3.71,4.02,4.77.33,1.58-1.1,3.01-2.09,4.15-2.85,3.29-6.24,6.27-8.98,9.48Z"/>
      <path class="cls-6" d="M1092.61,926.48c-.16.16-.13.63-.33.83-.3.3-1.91,2.06-2.33,1.68-1.08-2.34.72-4.34.75-6.36.02-1.84-1.2-1.72-2.39-2.47-.48-.3-.76-.77-1.28-1.05-1.47-.78-3.87-1.29-5.45-2.04-1.71-1.09.75-3.54,1.35-4.53,1.68-2.81,3.46-5.57,4.94-8.49,1.87-1.34,2.57-1.33,4.58-.42,3.36,1.51,4.94,2.69,7.7,4.95,2.59,2.13,3.44,1.06,1.86,5.22-1.36,3.56-3.71,6.09-5.98,9-.45.58-.61,1.48-1.07,2.03-.54.65-2.03,1.31-2.36,1.64Z"/>
      <path class="cls-6" d="M1087.29,901.18c.6.7-.81,3.56-1.25,4.4-1.21,2.29-4.39,7.25-6.04,9.2-.7.82-1.47.92-2.51.73-1.17-.22-2.36-1.39-3.22-1.68-.62-.21-1.42-.09-2.18-.41-2.21-.91-4.26-2.14-6.49-3-1.54-2.05,1.21-3.3,2.11-4.57.48-.67.53-1.56.88-2.22,1.12-2.1,3.55-6.13,5.1-7.81,2.21-2.41,3.48-1.49,5.91-.23,1.99,1.04,3.4,2.1,5.07,3.45.67.54,2.14,1.57,2.63,2.14Z"/>
      <path class="cls-6" d="M1087.37,933.12c-.03,2.31-2.26,2.83-3.36,4.26-.82,1.07-1.56,3.73-3.23,3.9-.57.06-2.74-1.68-3.48-2.1-1.23-.71-3.48-.8-3.36-2.69,2.13-.57,4.26-1.74,6.38-2.28.62-.16,1.3.02,1.94-.13.8-.18,4.74-1.5,5.1-.97Z"/>
    </g>
    <g>
      <path class="cls-6" d="M791.27,938.3c-.16-.09-2.41-2.15-2.78-2.5-.42-.39-4.49-5-5.03-4.39-.12,1.14.72,2.16.79,3.23.1,1.77-2.64,6.95-5.04,6.32-.54,1.63,2.43,1.37,3.49,1.67,1.13.32,2.87,1.63,4.06,2.13,1.29.55,3.04.82,4.12,1.3,1.19.53,5.1,6.69,6.22,8.24,3.85,5.32,7.98,10.85,11.3,16.59,1.06,1.83,3.16,3.02.5,4.93-1.3.93-3.61,2.51-5.03,3.24-.3.16-2.66.64-2.08,1.15,1.77.61,3.66-.01,5.28.02s1,2.16,1.19,3.2c.08.43.38.76.44,1.11,1.23,7.19,1.25,14.51,1.87,21.76l.78-.15c-.07-1.01.09-2.08,0-3.07-.51-5.31-1.11-13.02-.49-18.31.07-.61.33-1.65.74-2.1.71-.8,4.08-1.33,3.59-2.79-.92-.87-2.71-1.76-3.27-2.94-.38-.79-.26-1.7-.56-2.54-1.22-3.41-3.99-11.23-6.08-13.8-1.13-1.39-3.02-2.84-4.12-4.15-1.11-1.32-2.35-3.42-3.4-4.86-.38-.53-2.87-2.61-1-2.88,2.97.18,5.58.61,8.44,1.38,1.82.49,6.54,1.68,8.01,2.32.82.36,3.69,2.91,4.59,3.67,1.98,1.69,3.75,3.69,5.8,5.31l12.4-10.61c.3-.04.52.17.61.44.15.47-.37,3.92-.54,4.55-.29,1.08-1.66,3.07-1.75,3.96-.08.84.5,1.29.53,2.04.1,2.2-2.62,12.41-3.9,14.19-.71,1-2.38,2.32-2.95,3.24-.42.67-.38,1.38-.79,2.05-.48.77-1.85,1.7-2.3,2.34-1.76,2.44-1.04,5.33-1.16,8.14-.3,7.19.08,14.6-.76,21.7-.12,1.02.41,3.34-.72,3.67l-38.43.06c-.98-.3-2.78-.76-3.1-1.8-.27-.87-.23-5.02-.09-6.06.39-2.88,1.79-6.55,2.27-9.6.71-4.5.91-9.1,1.64-13.59.26-1.6,1.11-2.85.65-4.65-.1-.41-2.21-3.96-2.61-4.62-1.39-2.26-6.17-7.87-6.48-10-.06-.46.28-1.26.09-1.55-.14-.2-2.44-.37-3.33-1.44-.54-.65-2.13-3.23-2.63-4.08-.68-1.16-1.61-3.91-2.26-4.71-.41-.5-1.24-.55-1.69-1.15-.5-.69-.39-1.97-.91-2.45-.32-.3-.99-.33-1.42-.64-.73-.53-3.84-5-4.36-5.97-.88-1.65.47-2.12,1.19-3.4.35-.63.49-1.35.87-1.97.43-.72,1.63-1.72,1.79-2.09.27-.6.05-1.26.19-1.88.35-1.49,3.16-4.42,4.07-5.74,2.76-3.97,4.96-8.55,8.13-12.27,2.12-2.49,3.36-2.36,6.38-1.21,2.09.8,4.96,2.74,6.92,3.41.99.34,2.22.22,3.09.53.49.18,1.21.91,1.9,1.2,3.03,1.3,6.52,2.17,9.39,3.78,1.83,1.02,3.27,1.92,2.86,4.25-.16.89-.88,3.65-1.22,4.46-1.37,3.23-5.44,2.63-8.08,3.28-1.63.4-3.83,2.26-5.8,1.16Z"/>
      <path class="cls-6" d="M805.83,942.42c1.44-1.88,3.17-5.32,4.53-7.48,1.22-1.94,2.28-3.92,3.45-5.84,1.92-3.15,5.05-5.65,6.04-9.46.4-.28,1.29.17,1.74.36,3.89,1.67,6.72,5.24,10.11,7.7l.46,1.91c-2.68,5.95-7.12,10.93-11.36,15.77-1.15,1.75-3.69,5.47-5.59,6.3-.99.43-2.24-1.03-3.01-1.37-.57-.25-1.24-.2-1.67-.39-1.19-.54-6.62-3.22-6.88-4.24-.12-.46,1.03-2.14,1.39-2.65.23-.32.65-.41.8-.61Z"/>
      <path class="cls-6" d="M830.89,954.31c-.32.37-3.33,1.77-4.04,2.29-2.19,1.58-2.59,3.91-5.32,1.67-1.02-.84-1.34-1.76-2.01-2.51-.88-.99-2.77-1.79-2.51-3.29.04-.23,2.47-3.03,2.84-3.38.41-.38,1.06-.51,1.24-.7.29-.31.23-1.04.47-1.47.26-.48,2.61-3.53,3.1-4.13,1.96-2.42,4.79-4.8,6.71-7.23.58-.74,1.56-3.09,2.37-3.32,1.75-.51,3.2,2.55,4.21,3.69.89,1.01,3.8,3.71,4.02,4.77.33,1.58-1.1,3.01-2.09,4.15-2.85,3.29-6.24,6.27-8.98,9.48Z"/>
      <path class="cls-6" d="M809.61,931.48c-.16.16-.13.63-.33.83-.3.3-1.91,2.06-2.33,1.68-1.08-2.34.72-4.34.75-6.36.02-1.84-1.2-1.72-2.39-2.47-.48-.3-.76-.77-1.28-1.05-1.47-.78-3.87-1.29-5.45-2.04-1.71-1.09.75-3.54,1.35-4.53,1.68-2.81,3.46-5.57,4.94-8.49,1.87-1.34,2.57-1.33,4.58-.42,3.36,1.51,4.94,2.69,7.7,4.95,2.59,2.13,3.44,1.06,1.86,5.22-1.36,3.56-3.71,6.09-5.98,9-.45.58-.61,1.48-1.07,2.03-.54.65-2.03,1.31-2.36,1.64Z"/>
      <path class="cls-6" d="M804.29,906.18c.6.7-.81,3.56-1.25,4.4-1.21,2.29-4.39,7.25-6.04,9.2-.7.82-1.47.92-2.51.73-1.17-.22-2.36-1.39-3.22-1.68-.62-.21-1.42-.09-2.18-.41-2.21-.91-4.26-2.14-6.49-3-1.54-2.05,1.21-3.3,2.11-4.57.48-.67.53-1.56.88-2.22,1.12-2.1,3.55-6.13,5.1-7.81,2.21-2.41,3.48-1.49,5.91-.23,1.99,1.04,3.4,2.1,5.07,3.45.67.54,2.14,1.57,2.63,2.14Z"/>
      <path class="cls-6" d="M804.37,938.12c-.03,2.31-2.26,2.83-3.36,4.26-.82,1.07-1.56,3.73-3.23,3.9-.57.06-2.74-1.68-3.48-2.1-1.23-.71-3.48-.8-3.36-2.69,2.13-.57,4.26-1.74,6.38-2.28.62-.16,1.3.02,1.94-.13.8-.18,4.74-1.5,5.1-.97Z"/>
    </g>
    <g>
      <path class="cls-6" d="M588.71,945.37c-.14-.08-2.04-1.82-2.36-2.12-.36-.33-3.8-4.23-4.25-3.72-.1.96.61,1.82.66,2.74.08,1.5-2.24,5.88-4.27,5.34-.46,1.38,2.06,1.16,2.95,1.42.95.27,2.43,1.38,3.44,1.81,1.09.46,2.57.69,3.49,1.1,1.01.45,4.32,5.66,5.26,6.97,3.26,4.5,6.75,9.18,9.56,14.04.89,1.55,2.68,2.56.42,4.17-1.1.79-3.06,2.12-4.25,2.74-.26.13-2.25.54-1.76.97,1.5.52,3.1-.01,4.47.02s.85,1.83,1.01,2.7c.07.36.32.65.37.94,1.04,6.09,1.06,12.28,1.58,18.41l.66-.13c-.06-.85.08-1.76,0-2.6-.43-4.5-.94-11.02-.41-15.49.06-.52.28-1.39.62-1.78.6-.67,3.45-1.13,3.04-2.36-.78-.74-2.29-1.49-2.77-2.49-.32-.67-.22-1.44-.47-2.15-1.03-2.89-3.37-9.51-5.14-11.68-.96-1.18-2.56-2.41-3.48-3.51s-1.99-2.89-2.88-4.12c-.32-.45-2.43-2.21-.85-2.43,2.51.15,4.72.52,7.14,1.17,1.54.41,5.53,1.42,6.78,1.96.7.3,3.13,2.46,3.88,3.11,1.67,1.43,3.18,3.12,4.91,4.5l10.49-8.98c.26-.04.44.14.51.37.13.4-.31,3.32-.45,3.85-.25.91-1.4,2.6-1.48,3.35-.07.71.42,1.09.45,1.73.09,1.86-2.22,10.51-3.3,12.01-.6.84-2.01,1.96-2.5,2.74-.35.57-.32,1.16-.67,1.73-.4.65-1.56,1.44-1.95,1.98-1.49,2.07-.88,4.51-.98,6.89-.26,6.09.07,12.36-.65,18.36-.1.86.35,2.83-.61,3.11l-32.52.05c-.83-.25-2.36-.65-2.63-1.52-.23-.74-.2-4.25-.08-5.13.33-2.44,1.52-5.54,1.92-8.13.6-3.81.77-7.7,1.39-11.5.22-1.35.94-2.41.55-3.94-.09-.35-1.87-3.35-2.21-3.91-1.18-1.91-5.23-6.66-5.48-8.47-.05-.39.24-1.07.07-1.31-.12-.17-2.06-.31-2.82-1.22-.46-.55-1.81-2.73-2.23-3.46-.57-.99-1.36-3.31-1.91-3.99-.34-.42-1.05-.46-1.43-.98-.42-.59-.33-1.66-.77-2.07-.27-.25-.83-.28-1.2-.54-.62-.45-3.25-4.23-3.69-5.05-.74-1.4.4-1.79,1-2.88.3-.54.42-1.14.73-1.67.37-.61,1.38-1.45,1.51-1.76.22-.51.04-1.07.16-1.59.3-1.26,2.67-3.74,3.45-4.86,2.34-3.36,4.2-7.24,6.88-10.38,1.8-2.11,2.85-2,5.4-1.02,1.77.67,4.2,2.32,5.86,2.88.83.28,1.88.18,2.61.45.42.15,1.03.77,1.61,1.02,2.57,1.1,5.51,1.84,7.95,3.2,1.55.86,2.76,1.62,2.42,3.59-.13.75-.75,3.09-1.04,3.77-1.16,2.74-4.6,2.22-6.84,2.77-1.38.34-3.24,1.92-4.91.98Z"/>
      <path class="cls-6" d="M601.04,948.85c1.22-1.59,2.69-4.5,3.83-6.33,1.03-1.64,1.93-3.32,2.92-4.94,1.63-2.67,4.27-4.78,5.11-8.01.33-.24,1.1.14,1.47.31,3.3,1.42,5.68,4.43,8.56,6.52l.39,1.62c-2.27,5.03-6.03,9.25-9.62,13.34-.97,1.48-3.12,4.63-4.73,5.33-.84.37-1.9-.87-2.55-1.16-.49-.21-1.05-.17-1.42-.33-1.01-.46-5.61-2.72-5.83-3.59-.1-.39.88-1.81,1.18-2.25.19-.27.55-.35.68-.51Z"/>
      <path class="cls-6" d="M622.25,958.91c-.27.31-2.82,1.5-3.42,1.93-1.85,1.33-2.19,3.31-4.5,1.41-.86-.71-1.13-1.49-1.7-2.12-.74-.83-2.34-1.51-2.12-2.79.03-.19,2.09-2.57,2.4-2.86.34-.32.9-.43,1.05-.59.24-.26.2-.88.4-1.25.22-.41,2.21-2.99,2.62-3.5,1.66-2.05,4.05-4.07,5.68-6.12.49-.63,1.32-2.61,2.01-2.81,1.48-.43,2.71,2.16,3.56,3.13.75.85,3.22,3.14,3.41,4.04.28,1.34-.94,2.55-1.77,3.51-2.41,2.78-5.28,5.3-7.6,8.02Z"/>
      <path class="cls-6" d="M604.24,939.59c-.14.14-.11.54-.28.7-.26.25-1.62,1.74-1.97,1.42-.91-1.98.61-3.67.63-5.38.02-1.56-1.02-1.46-2.02-2.09-.4-.25-.64-.65-1.08-.89-1.24-.66-3.28-1.1-4.61-1.72-1.45-.92.64-2.99,1.14-3.84,1.42-2.37,2.93-4.71,4.18-7.18,1.59-1.14,2.17-1.12,3.87-.36,2.84,1.27,4.18,2.27,6.51,4.19,2.19,1.8,2.92.9,1.57,4.42-1.15,3.02-3.14,5.16-5.06,7.62-.38.49-.52,1.25-.9,1.72-.46.55-1.72,1.11-2,1.39Z"/>
      <path class="cls-6" d="M599.73,918.18c.51.59-.68,3.01-1.06,3.73-1.02,1.94-3.72,6.14-5.11,7.78-.59.7-1.24.78-2.12.61-.99-.19-2-1.17-2.73-1.42-.53-.18-1.2-.08-1.84-.34-1.87-.77-3.61-1.81-5.49-2.54-1.31-1.73,1.02-2.79,1.79-3.87.4-.57.45-1.32.74-1.88.95-1.77,3-5.19,4.31-6.61,1.87-2.04,2.95-1.26,5-.19,1.69.88,2.88,1.77,4.29,2.92.57.46,1.81,1.33,2.23,1.81Z"/>
      <path class="cls-6" d="M599.8,945.21c-.03,1.96-1.91,2.39-2.84,3.61-.69.91-1.32,3.16-2.73,3.3-.49.05-2.31-1.42-2.94-1.78-1.04-.6-2.94-.68-2.84-2.28,1.8-.48,3.6-1.48,5.4-1.93.52-.13,1.1.02,1.64-.11.68-.15,4.01-1.27,4.32-.82Z"/>
    </g>
    <g>
      <path class="cls-6" d="M933.71,962.42c-.14-.08-2.04-1.82-2.36-2.12-.36-.33-3.8-4.23-4.25-3.72-.1.96.61,1.82.66,2.74.08,1.5-2.24,5.88-4.27,5.34-.46,1.38,2.06,1.16,2.95,1.42.95.27,2.43,1.38,3.44,1.81,1.09.46,2.57.69,3.49,1.1,1.01.45,4.32,5.66,5.26,6.97,3.26,4.5,6.75,9.18,9.56,14.04.89,1.55,2.68,2.56.42,4.17-1.1.79-3.06,2.12-4.25,2.74-.26.13-2.25.54-1.76.97,1.5.52,3.1-.01,4.47.02s.85,1.83,1.01,2.7c.07.36.32.65.37.94,1.04,6.09,1.06,12.28,1.58,18.41l.66-.13c-.06-.85.08-1.76,0-2.6-.43-4.5-.94-11.02-.41-15.49.06-.52.28-1.39.62-1.78.6-.67,3.45-1.13,3.04-2.36-.78-.74-2.29-1.49-2.77-2.49-.32-.67-.22-1.44-.47-2.15-1.03-2.89-3.37-9.51-5.14-11.68-.96-1.18-2.56-2.41-3.48-3.51s-1.99-2.89-2.88-4.12c-.32-.45-2.43-2.21-.85-2.43,2.51.15,4.72.52,7.14,1.17,1.54.41,5.53,1.42,6.78,1.96.7.3,3.13,2.46,3.88,3.11,1.67,1.43,3.18,3.12,4.91,4.5l10.49-8.98c.26-.04.44.14.51.37.13.4-.31,3.32-.45,3.85-.25.91-1.4,2.6-1.48,3.35-.07.71.42,1.09.45,1.73.09,1.86-2.22,10.51-3.3,12.01-.6.84-2.01,1.96-2.5,2.74-.35.57-.32,1.16-.67,1.73-.4.65-1.56,1.44-1.95,1.98-1.49,2.07-.88,4.51-.98,6.89-.26,6.09.07,12.36-.65,18.36-.1.86.35,2.83-.61,3.11l-32.52.05c-.83-.25-2.36-.65-2.63-1.52-.23-.74-.2-4.25-.08-5.13.33-2.44,1.52-5.54,1.92-8.13.6-3.81.77-7.7,1.39-11.5.22-1.35.94-2.41.55-3.94-.09-.35-1.87-3.35-2.21-3.91-1.18-1.91-5.23-6.66-5.48-8.47-.05-.39.24-1.07.07-1.31-.12-.17-2.06-.31-2.82-1.22-.46-.55-1.81-2.73-2.23-3.46-.57-.99-1.36-3.31-1.91-3.99-.34-.42-1.05-.46-1.43-.98-.42-.59-.33-1.66-.77-2.07-.27-.25-.83-.28-1.2-.54-.62-.45-3.25-4.23-3.69-5.05-.74-1.4.4-1.79,1-2.88.3-.54.42-1.14.73-1.67.37-.61,1.38-1.45,1.51-1.76.22-.51.04-1.07.16-1.59.3-1.26,2.67-3.74,3.45-4.86,2.34-3.36,4.2-7.24,6.88-10.38,1.8-2.11,2.85-2,5.4-1.02,1.77.67,4.2,2.32,5.86,2.88.83.28,1.88.18,2.61.45.42.15,1.03.77,1.61,1.02,2.57,1.1,5.51,1.84,7.95,3.2,1.55.86,2.76,1.62,2.42,3.59-.13.75-.75,3.09-1.04,3.77-1.16,2.74-4.6,2.22-6.84,2.77-1.38.34-3.24,1.92-4.91.98Z"/>
      <path class="cls-6" d="M946.04,965.9c1.22-1.59,2.69-4.5,3.83-6.33,1.03-1.64,1.93-3.32,2.92-4.94,1.63-2.67,4.27-4.78,5.11-8.01.33-.24,1.1.14,1.47.31,3.3,1.42,5.68,4.43,8.56,6.52l.39,1.62c-2.27,5.03-6.03,9.25-9.62,13.34-.97,1.48-3.12,4.63-4.73,5.33-.84.37-1.9-.87-2.55-1.16-.49-.21-1.05-.17-1.42-.33-1.01-.46-5.61-2.72-5.83-3.59-.1-.39.88-1.81,1.18-2.25.19-.27.55-.35.68-.51Z"/>
      <path class="cls-6" d="M967.25,975.96c-.27.31-2.82,1.5-3.42,1.93-1.85,1.33-2.19,3.31-4.5,1.41-.86-.71-1.13-1.49-1.7-2.12-.74-.83-2.34-1.51-2.12-2.79.03-.19,2.09-2.57,2.4-2.86.34-.32.9-.43,1.05-.59.24-.26.2-.88.4-1.25.22-.41,2.21-2.99,2.62-3.5,1.66-2.05,4.05-4.07,5.68-6.12.49-.63,1.32-2.61,2.01-2.81,1.48-.43,2.71,2.16,3.56,3.13.75.85,3.22,3.14,3.41,4.04.28,1.34-.94,2.55-1.77,3.51-2.41,2.78-5.28,5.3-7.6,8.02Z"/>
      <path class="cls-6" d="M949.24,956.64c-.14.14-.11.54-.28.7-.26.25-1.62,1.74-1.97,1.42-.91-1.98.61-3.67.63-5.38.02-1.56-1.02-1.46-2.02-2.09-.4-.25-.64-.65-1.08-.89-1.24-.66-3.28-1.1-4.61-1.72-1.45-.92.64-2.99,1.14-3.84,1.42-2.37,2.93-4.71,4.18-7.18,1.59-1.14,2.17-1.12,3.87-.36,2.84,1.27,4.18,2.27,6.51,4.19,2.19,1.8,2.92.9,1.57,4.42-1.15,3.02-3.14,5.16-5.06,7.62-.38.49-.52,1.25-.9,1.72-.46.55-1.72,1.11-2,1.39Z"/>
      <path class="cls-6" d="M944.73,935.23c.51.59-.68,3.01-1.06,3.73-1.02,1.94-3.72,6.14-5.11,7.78-.59.7-1.24.78-2.12.61-.99-.19-2-1.17-2.73-1.42-.53-.18-1.2-.08-1.84-.34-1.87-.77-3.61-1.81-5.49-2.54-1.31-1.73,1.02-2.79,1.79-3.87.4-.57.45-1.32.74-1.88.95-1.77,3-5.19,4.31-6.61,1.87-2.04,2.95-1.26,5-.19,1.69.88,2.88,1.77,4.29,2.92.57.46,1.81,1.33,2.23,1.81Z"/>
      <path class="cls-6" d="M944.8,962.26c-.03,1.96-1.91,2.39-2.84,3.61-.69.91-1.32,3.16-2.73,3.3-.49.05-2.31-1.42-2.94-1.78-1.04-.6-2.94-.68-2.84-2.28,1.8-.48,3.6-1.48,5.4-1.93.52-.13,1.1.02,1.64-.11.68-.15,4.01-1.27,4.32-.82Z"/>
    </g>
    <g>
      <path class="cls-6" d="M662.71,940.42c-.14-.08-2.04-1.82-2.36-2.12-.36-.33-3.8-4.23-4.25-3.72-.1.96.61,1.82.66,2.74.08,1.5-2.24,5.88-4.27,5.34-.46,1.38,2.06,1.16,2.95,1.42.95.27,2.43,1.38,3.44,1.81,1.09.46,2.57.69,3.49,1.1,1.01.45,4.32,5.66,5.26,6.97,3.26,4.5,6.75,9.18,9.56,14.04.89,1.55,2.68,2.56.42,4.17-1.1.79-3.06,2.12-4.25,2.74-.26.13-2.25.54-1.76.97,1.5.52,3.1-.01,4.47.02s.85,1.83,1.01,2.7c.07.36.32.65.37.94,1.04,6.09,1.06,12.28,1.58,18.41l.66-.13c-.06-.85.08-1.76,0-2.6-.43-4.5-.94-11.02-.41-15.49.06-.52.28-1.39.62-1.78.6-.67,3.45-1.13,3.04-2.36-.78-.74-2.29-1.49-2.77-2.49-.32-.67-.22-1.44-.47-2.15-1.03-2.89-3.37-9.51-5.14-11.68-.96-1.18-2.56-2.41-3.48-3.51s-1.99-2.89-2.88-4.12c-.32-.45-2.43-2.21-.85-2.43,2.51.15,4.72.52,7.14,1.17,1.54.41,5.53,1.42,6.78,1.96.7.3,3.13,2.46,3.88,3.11,1.67,1.43,3.18,3.12,4.91,4.5l10.49-8.98c.26-.04.44.14.51.37.13.4-.31,3.32-.45,3.85-.25.91-1.4,2.6-1.48,3.35-.07.71.42,1.09.45,1.73.09,1.86-2.22,10.51-3.3,12.01-.6.84-2.01,1.96-2.5,2.74-.35.57-.32,1.16-.67,1.73-.4.65-1.56,1.44-1.95,1.98-1.49,2.07-.88,4.51-.98,6.89-.26,6.09.07,12.36-.65,18.36-.1.86.35,2.83-.61,3.11l-32.52.05c-.83-.25-2.36-.65-2.63-1.52-.23-.74-.2-4.25-.08-5.13.33-2.44,1.52-5.54,1.92-8.13.6-3.81.77-7.7,1.39-11.5.22-1.35.94-2.41.55-3.94-.09-.35-1.87-3.35-2.21-3.91-1.18-1.91-5.23-6.66-5.48-8.47-.05-.39.24-1.07.07-1.31-.12-.17-2.06-.31-2.82-1.22-.46-.55-1.81-2.73-2.23-3.46-.57-.99-1.36-3.31-1.91-3.99-.34-.42-1.05-.46-1.43-.98-.42-.59-.33-1.66-.77-2.07-.27-.25-.83-.28-1.2-.54-.62-.45-3.25-4.23-3.69-5.05-.74-1.4.4-1.79,1-2.88.3-.54.42-1.14.73-1.67.37-.61,1.38-1.45,1.51-1.76.22-.51.04-1.07.16-1.59.3-1.26,2.67-3.74,3.45-4.86,2.34-3.36,4.2-7.24,6.88-10.38,1.8-2.11,2.85-2,5.4-1.02,1.77.67,4.2,2.32,5.86,2.88.83.28,1.88.18,2.61.45.42.15,1.03.77,1.61,1.02,2.57,1.1,5.51,1.84,7.95,3.2,1.55.86,2.76,1.62,2.42,3.59-.13.75-.75,3.09-1.04,3.77-1.16,2.74-4.6,2.22-6.84,2.77-1.38.34-3.24,1.92-4.91.98Z"/>
      <path class="cls-6" d="M675.04,943.9c1.22-1.59,2.69-4.5,3.83-6.33,1.03-1.64,1.93-3.32,2.92-4.94,1.63-2.67,4.27-4.78,5.11-8.01.33-.24,1.1.14,1.47.31,3.3,1.42,5.68,4.43,8.56,6.52l.39,1.62c-2.27,5.03-6.03,9.25-9.62,13.34-.97,1.48-3.12,4.63-4.73,5.33-.84.37-1.9-.87-2.55-1.16-.49-.21-1.05-.17-1.42-.33-1.01-.46-5.61-2.72-5.83-3.59-.1-.39.88-1.81,1.18-2.25.19-.27.55-.35.68-.51Z"/>
      <path class="cls-6" d="M696.25,953.96c-.27.31-2.82,1.5-3.42,1.93-1.85,1.33-2.19,3.31-4.5,1.41-.86-.71-1.13-1.49-1.7-2.12-.74-.83-2.34-1.51-2.12-2.79.03-.19,2.09-2.57,2.4-2.86.34-.32.9-.43,1.05-.59.24-.26.2-.88.4-1.25.22-.41,2.21-2.99,2.62-3.5,1.66-2.05,4.05-4.07,5.68-6.12.49-.63,1.32-2.61,2.01-2.81,1.48-.43,2.71,2.16,3.56,3.13.75.85,3.22,3.14,3.41,4.04.28,1.34-.94,2.55-1.77,3.51-2.41,2.78-5.28,5.3-7.6,8.02Z"/>
      <path class="cls-6" d="M678.24,934.64c-.14.14-.11.54-.28.7-.26.25-1.62,1.74-1.97,1.42-.91-1.98.61-3.67.63-5.38.02-1.56-1.02-1.46-2.02-2.09-.4-.25-.64-.65-1.08-.89-1.24-.66-3.28-1.1-4.61-1.72-1.45-.92.64-2.99,1.14-3.84,1.42-2.37,2.93-4.71,4.18-7.18,1.59-1.14,2.17-1.12,3.87-.36,2.84,1.27,4.18,2.27,6.51,4.19,2.19,1.8,2.92.9,1.57,4.42-1.15,3.02-3.14,5.16-5.06,7.62-.38.49-.52,1.25-.9,1.72-.46.55-1.72,1.11-2,1.39Z"/>
      <path class="cls-6" d="M673.73,913.23c.51.59-.68,3.01-1.06,3.73-1.02,1.94-3.72,6.14-5.11,7.78-.59.7-1.24.78-2.12.61-.99-.19-2-1.17-2.73-1.42-.53-.18-1.2-.08-1.84-.34-1.87-.77-3.61-1.81-5.49-2.54-1.31-1.73,1.02-2.79,1.79-3.87.4-.57.45-1.32.74-1.88.95-1.77,3-5.19,4.31-6.61,1.87-2.04,2.95-1.26,5-.19,1.69.88,2.88,1.77,4.29,2.92.57.46,1.81,1.33,2.23,1.81Z"/>
      <path class="cls-6" d="M673.8,940.26c-.03,1.96-1.91,2.39-2.84,3.61-.69.91-1.32,3.16-2.73,3.3-.49.05-2.31-1.42-2.94-1.78-1.04-.6-2.94-.68-2.84-2.28,1.8-.48,3.6-1.48,5.4-1.93.52-.13,1.1.02,1.64-.11.68-.15,4.01-1.27,4.32-.82Z"/>
    </g>
    <g>
      <path class="cls-6" d="M868.71,920.42c-.14-.08-2.04-1.82-2.36-2.12-.36-.33-3.8-4.23-4.25-3.72-.1.96.61,1.82.66,2.74.08,1.5-2.24,5.88-4.27,5.34-.46,1.38,2.06,1.16,2.95,1.42.95.27,2.43,1.38,3.44,1.81,1.09.46,2.57.69,3.49,1.1,1.01.45,4.32,5.66,5.26,6.97,3.26,4.5,6.75,9.18,9.56,14.04.89,1.55,2.68,2.56.42,4.17-1.1.79-3.06,2.12-4.25,2.74-.26.13-2.25.54-1.76.97,1.5.52,3.1-.01,4.47.02s.85,1.83,1.01,2.7c.07.36.32.65.37.94,1.04,6.09,1.06,12.28,1.58,18.41l.66-.13c-.06-.85.08-1.76,0-2.6-.43-4.5-.94-11.02-.41-15.49.06-.52.28-1.39.62-1.78.6-.67,3.45-1.13,3.04-2.36-.78-.74-2.29-1.49-2.77-2.49-.32-.67-.22-1.44-.47-2.15-1.03-2.89-3.37-9.51-5.14-11.68-.96-1.18-2.56-2.41-3.48-3.51s-1.99-2.89-2.88-4.12c-.32-.45-2.43-2.21-.85-2.43,2.51.15,4.72.52,7.14,1.17,1.54.41,5.53,1.42,6.78,1.96.7.3,3.13,2.46,3.88,3.11,1.67,1.43,3.18,3.12,4.91,4.5l10.49-8.98c.26-.04.44.14.51.37.13.4-.31,3.32-.45,3.85-.25.91-1.4,2.6-1.48,3.35-.07.71.42,1.09.45,1.73.09,1.86-2.22,10.51-3.3,12.01-.6.84-2.01,1.96-2.5,2.74-.35.57-.32,1.16-.67,1.73-.4.65-1.56,1.44-1.95,1.98-1.49,2.07-.88,4.51-.98,6.89-.26,6.09.07,12.36-.65,18.36-.1.86.35,2.83-.61,3.11l-32.52.05c-.83-.25-2.36-.65-2.63-1.52-.23-.74-.2-4.25-.08-5.13.33-2.44,1.52-5.54,1.92-8.13.6-3.81.77-7.7,1.39-11.5.22-1.35.94-2.41.55-3.94-.09-.35-1.87-3.35-2.21-3.91-1.18-1.91-5.23-6.66-5.48-8.47-.05-.39.24-1.07.07-1.31-.12-.17-2.06-.31-2.82-1.22-.46-.55-1.81-2.73-2.23-3.46-.57-.99-1.36-3.31-1.91-3.99-.34-.42-1.05-.46-1.43-.98-.42-.59-.33-1.66-.77-2.07-.27-.25-.83-.28-1.2-.54-.62-.45-3.25-4.23-3.69-5.05-.74-1.4.4-1.79,1-2.88.3-.54.42-1.14.73-1.67.37-.61,1.38-1.45,1.51-1.76.22-.51.04-1.07.16-1.59.3-1.26,2.67-3.74,3.45-4.86,2.34-3.36,4.2-7.24,6.88-10.38,1.8-2.11,2.85-2,5.4-1.02,1.77.67,4.2,2.32,5.86,2.88.83.28,1.88.18,2.61.45.42.15,1.03.77,1.61,1.02,2.57,1.1,5.51,1.84,7.95,3.2,1.55.86,2.76,1.62,2.42,3.59-.13.75-.75,3.09-1.04,3.77-1.16,2.74-4.6,2.22-6.84,2.77-1.38.34-3.24,1.92-4.91.98Z"/>
      <path class="cls-6" d="M881.04,923.9c1.22-1.59,2.69-4.5,3.83-6.33,1.03-1.64,1.93-3.32,2.92-4.94,1.63-2.67,4.27-4.78,5.11-8.01.33-.24,1.1.14,1.47.31,3.3,1.42,5.68,4.43,8.56,6.52l.39,1.62c-2.27,5.03-6.03,9.25-9.62,13.34-.97,1.48-3.12,4.63-4.73,5.33-.84.37-1.9-.87-2.55-1.16-.49-.21-1.05-.17-1.42-.33-1.01-.46-5.61-2.72-5.83-3.59-.1-.39.88-1.81,1.18-2.25.19-.27.55-.35.68-.51Z"/>
      <path class="cls-6" d="M902.25,933.96c-.27.31-2.82,1.5-3.42,1.93-1.85,1.33-2.19,3.31-4.5,1.41-.86-.71-1.13-1.49-1.7-2.12-.74-.83-2.34-1.51-2.12-2.79.03-.19,2.09-2.57,2.4-2.86.34-.32.9-.43,1.05-.59.24-.26.2-.88.4-1.25.22-.41,2.21-2.99,2.62-3.5,1.66-2.05,4.05-4.07,5.68-6.12.49-.63,1.32-2.61,2.01-2.81,1.48-.43,2.71,2.16,3.56,3.13.75.85,3.22,3.14,3.41,4.04.28,1.34-.94,2.55-1.77,3.51-2.41,2.78-5.28,5.3-7.6,8.02Z"/>
      <path class="cls-6" d="M884.24,914.64c-.14.14-.11.54-.28.7-.26.25-1.62,1.74-1.97,1.42-.91-1.98.61-3.67.63-5.38.02-1.56-1.02-1.46-2.02-2.09-.4-.25-.64-.65-1.08-.89-1.24-.66-3.28-1.1-4.61-1.72-1.45-.92.64-2.99,1.14-3.84,1.42-2.37,2.93-4.71,4.18-7.18,1.59-1.14,2.17-1.12,3.87-.36,2.84,1.27,4.18,2.27,6.51,4.19,2.19,1.8,2.92.9,1.57,4.42-1.15,3.02-3.14,5.16-5.06,7.62-.38.49-.52,1.25-.9,1.72-.46.55-1.72,1.11-2,1.39Z"/>
      <path class="cls-6" d="M879.73,893.23c.51.59-.68,3.01-1.06,3.73-1.02,1.94-3.72,6.14-5.11,7.78-.59.7-1.24.78-2.12.61-.99-.19-2-1.17-2.73-1.42-.53-.18-1.2-.08-1.84-.34-1.87-.77-3.61-1.81-5.49-2.54-1.31-1.73,1.02-2.79,1.79-3.87.4-.57.45-1.32.74-1.88.95-1.77,3-5.19,4.31-6.61,1.87-2.04,2.95-1.26,5-.19,1.69.88,2.88,1.77,4.29,2.92.57.46,1.81,1.33,2.23,1.81Z"/>
      <path class="cls-6" d="M879.8,920.26c-.03,1.96-1.91,2.39-2.84,3.61-.69.91-1.32,3.16-2.73,3.3-.49.05-2.31-1.42-2.94-1.78-1.04-.6-2.94-.68-2.84-2.28,1.8-.48,3.6-1.48,5.4-1.93.52-.13,1.1.02,1.64-.11.68-.15,4.01-1.27,4.32-.82Z"/>
    </g>
    <g>
      <path class="cls-6" d="M519.36,946.59c-.09-.05-1.36-1.22-1.57-1.41-.24-.22-2.54-2.82-2.84-2.48-.07.64.41,1.22.44,1.83.06,1-1.49,3.92-2.85,3.57-.3.92,1.38.77,1.97.94.64.18,1.62.92,2.29,1.21.73.31,1.72.46,2.33.73.67.3,2.88,3.78,3.51,4.65,2.18,3.01,4.51,6.13,6.38,9.37.6,1.03,1.79,1.71.28,2.78-.74.53-2.04,1.42-2.84,1.83-.17.09-1.5.36-1.17.65,1,.35,2.07,0,2.98.01s.56,1.22.67,1.8c.04.24.22.43.25.63.69,4.06.71,8.2,1.06,12.29l.44-.09c-.04-.57.05-1.17,0-1.74-.29-3-.63-7.35-.27-10.34.04-.34.18-.93.42-1.19.4-.45,2.31-.75,2.03-1.58-.52-.49-1.53-1-1.85-1.66-.21-.45-.15-.96-.32-1.43-.69-1.93-2.25-6.34-3.43-7.79-.64-.78-1.71-1.61-2.32-2.34s-1.33-1.93-1.92-2.75c-.22-.3-1.62-1.47-.57-1.62,1.67.1,3.15.35,4.76.78,1.03.27,3.69.95,4.53,1.31.46.2,2.09,1.64,2.59,2.07,1.12.95,2.12,2.09,3.28,3l7-5.99c.17-.02.29.1.34.25.08.26-.21,2.21-.3,2.57-.16.61-.94,1.73-.99,2.24-.05.48.28.73.3,1.15.06,1.24-1.48,7.01-2.2,8.02-.4.56-1.34,1.31-1.67,1.83-.24.38-.21.78-.45,1.16-.27.43-1.04.96-1.3,1.32-.99,1.38-.59,3.01-.66,4.6-.17,4.06.05,8.25-.43,12.25-.07.57.23,1.89-.41,2.07l-21.7.03c-.55-.17-1.57-.43-1.75-1.02-.15-.49-.13-2.84-.05-3.42.22-1.63,1.01-3.7,1.28-5.42.4-2.54.51-5.14.93-7.68.15-.9.63-1.61.36-2.63-.06-.23-1.25-2.24-1.47-2.61-.78-1.28-3.49-4.45-3.66-5.65-.04-.26.16-.71.05-.88-.08-.12-1.38-.21-1.88-.82-.31-.37-1.2-1.82-1.49-2.31-.38-.66-.91-2.21-1.28-2.66-.23-.28-.7-.31-.95-.65-.28-.39-.22-1.11-.51-1.38-.18-.17-.56-.18-.8-.36-.41-.3-2.17-2.82-2.46-3.37-.5-.93.26-1.19.67-1.92.2-.36.28-.76.49-1.11.24-.41.92-.97,1.01-1.18.15-.34.03-.71.11-1.06.2-.84,1.78-2.5,2.3-3.24,1.56-2.24,2.8-4.83,4.59-6.93,1.2-1.41,1.9-1.33,3.6-.68,1.18.45,2.8,1.55,3.91,1.92.56.19,1.25.12,1.74.3.28.1.68.51,1.07.68,1.71.73,3.68,1.23,5.3,2.13,1.03.58,1.84,1.08,1.62,2.4-.09.5-.5,2.06-.69,2.52-.77,1.83-3.07,1.48-4.56,1.85-.92.23-2.16,1.28-3.28.66Z"/>
      <path class="cls-6" d="M527.58,948.92c.81-1.06,1.79-3.01,2.56-4.22.69-1.09,1.29-2.21,1.95-3.3,1.09-1.78,2.85-3.19,3.41-5.34.22-.16.73.1.98.2,2.2.94,3.79,2.96,5.71,4.35l.26,1.08c-1.51,3.36-4.02,6.17-6.42,8.9-.65.99-2.08,3.09-3.16,3.56-.56.24-1.27-.58-1.7-.77-.32-.14-.7-.11-.94-.22-.67-.31-3.74-1.82-3.89-2.39-.07-.26.58-1.21.79-1.5.13-.18.37-.23.45-.34Z"/>
      <path class="cls-6" d="M541.74,955.63c-.18.21-1.88,1-2.28,1.29-1.23.89-1.46,2.21-3,.94-.58-.48-.76-.99-1.14-1.42-.5-.56-1.56-1.01-1.42-1.86.02-.13,1.4-1.71,1.6-1.91.23-.22.6-.29.7-.39.16-.17.13-.59.26-.83.15-.27,1.47-2,1.75-2.33,1.11-1.37,2.7-2.71,3.79-4.09.33-.42.88-1.74,1.34-1.88.99-.29,1.81,1.44,2.38,2.09.5.57,2.15,2.09,2.27,2.7.19.9-.62,1.7-1.18,2.34-1.61,1.86-3.53,3.54-5.07,5.35Z"/>
      <path class="cls-6" d="M529.72,942.74c-.09.09-.07.36-.18.47-.17.17-1.08,1.16-1.32.95-.61-1.32.41-2.45.42-3.59.01-1.04-.68-.97-1.35-1.39-.27-.17-.43-.43-.72-.59-.83-.44-2.19-.73-3.08-1.15-.97-.62.43-2,.76-2.56.95-1.58,1.95-3.14,2.79-4.79,1.06-.76,1.45-.75,2.59-.24,1.9.85,2.79,1.52,4.35,2.8,1.46,1.2,1.95.6,1.05,2.95-.77,2.01-2.09,3.44-3.37,5.08-.25.33-.34.84-.6,1.15-.31.37-1.15.74-1.33.93Z"/>
      <path class="cls-6" d="M526.71,928.45c.34.39-.46,2.01-.71,2.49-.68,1.29-2.48,4.1-3.41,5.19-.39.47-.83.52-1.42.41-.66-.12-1.33-.78-1.82-.95-.35-.12-.8-.05-1.23-.23-1.25-.51-2.41-1.21-3.67-1.69-.87-1.16.68-1.86,1.19-2.58.27-.38.3-.88.5-1.25.63-1.18,2-3.46,2.88-4.41,1.25-1.36,1.97-.84,3.34-.13,1.13.59,1.92,1.18,2.86,1.95.38.31,1.21.89,1.49,1.21Z"/>
      <path class="cls-6" d="M526.76,946.49c-.02,1.31-1.28,1.6-1.89,2.41-.46.61-.88,2.11-1.82,2.2-.32.03-1.54-.95-1.96-1.19-.7-.4-1.96-.45-1.9-1.52,1.2-.32,2.4-.98,3.6-1.28.35-.09.74.01,1.1-.07.45-.1,2.67-.84,2.88-.55Z"/>
    </g>
    <g>
      <path class="cls-6" d="M726.36,945.59c-.09-.05-1.36-1.22-1.57-1.41-.24-.22-2.54-2.82-2.84-2.48-.07.64.41,1.22.44,1.83.06,1-1.49,3.92-2.85,3.57-.3.92,1.38.77,1.97.94.64.18,1.62.92,2.29,1.21.73.31,1.72.46,2.33.73.67.3,2.88,3.78,3.51,4.65,2.18,3.01,4.51,6.13,6.38,9.37.6,1.03,1.79,1.71.28,2.78-.74.53-2.04,1.42-2.84,1.83-.17.09-1.5.36-1.17.65,1,.35,2.07,0,2.98.01s.56,1.22.67,1.8c.04.24.22.43.25.63.69,4.06.71,8.2,1.06,12.29l.44-.09c-.04-.57.05-1.17,0-1.74-.29-3-.63-7.35-.27-10.34.04-.34.18-.93.42-1.19.4-.45,2.31-.75,2.03-1.58-.52-.49-1.53-1-1.85-1.66-.21-.45-.15-.96-.32-1.43-.69-1.93-2.25-6.34-3.43-7.79-.64-.78-1.71-1.61-2.32-2.34s-1.33-1.93-1.92-2.75c-.22-.3-1.62-1.47-.57-1.62,1.67.1,3.15.35,4.76.78,1.03.27,3.69.95,4.53,1.31.46.2,2.09,1.64,2.59,2.07,1.12.95,2.12,2.09,3.28,3l7-5.99c.17-.02.29.1.34.25.08.26-.21,2.21-.3,2.57-.16.61-.94,1.73-.99,2.24-.05.48.28.73.3,1.15.06,1.24-1.48,7.01-2.2,8.02-.4.56-1.34,1.31-1.67,1.83-.24.38-.21.78-.45,1.16-.27.43-1.04.96-1.3,1.32-.99,1.38-.59,3.01-.66,4.6-.17,4.06.05,8.25-.43,12.25-.07.57.23,1.89-.41,2.07l-21.7.03c-.55-.17-1.57-.43-1.75-1.02-.15-.49-.13-2.84-.05-3.42.22-1.63,1.01-3.7,1.28-5.42.4-2.54.51-5.14.93-7.68.15-.9.63-1.61.36-2.63-.06-.23-1.25-2.24-1.47-2.61-.78-1.28-3.49-4.45-3.66-5.65-.04-.26.16-.71.05-.88-.08-.12-1.38-.21-1.88-.82-.31-.37-1.2-1.82-1.49-2.31-.38-.66-.91-2.21-1.28-2.66-.23-.28-.7-.31-.95-.65-.28-.39-.22-1.11-.51-1.38-.18-.17-.56-.18-.8-.36-.41-.3-2.17-2.82-2.46-3.37-.5-.93.26-1.19.67-1.92.2-.36.28-.76.49-1.11.24-.41.92-.97,1.01-1.18.15-.34.03-.71.11-1.06.2-.84,1.78-2.5,2.3-3.24,1.56-2.24,2.8-4.83,4.59-6.93,1.2-1.41,1.9-1.33,3.6-.68,1.18.45,2.8,1.55,3.91,1.92.56.19,1.25.12,1.74.3.28.1.68.51,1.07.68,1.71.73,3.68,1.23,5.3,2.13,1.03.58,1.84,1.08,1.62,2.4-.09.5-.5,2.06-.69,2.52-.77,1.83-3.07,1.48-4.56,1.85-.92.23-2.16,1.28-3.28.66Z"/>
      <path class="cls-6" d="M734.58,947.92c.81-1.06,1.79-3.01,2.56-4.22.69-1.09,1.29-2.21,1.95-3.3,1.09-1.78,2.85-3.19,3.41-5.34.22-.16.73.1.98.2,2.2.94,3.79,2.96,5.71,4.35l.26,1.08c-1.51,3.36-4.02,6.17-6.42,8.9-.65.99-2.08,3.09-3.16,3.56-.56.24-1.27-.58-1.7-.77-.32-.14-.7-.11-.94-.22-.67-.31-3.74-1.82-3.89-2.39-.07-.26.58-1.21.79-1.5.13-.18.37-.23.45-.34Z"/>
      <path class="cls-6" d="M748.74,954.63c-.18.21-1.88,1-2.28,1.29-1.23.89-1.46,2.21-3,.94-.58-.48-.76-.99-1.14-1.42-.5-.56-1.56-1.01-1.42-1.86.02-.13,1.4-1.71,1.6-1.91.23-.22.6-.29.7-.39.16-.17.13-.59.26-.83.15-.27,1.47-2,1.75-2.33,1.11-1.37,2.7-2.71,3.79-4.09.33-.42.88-1.74,1.34-1.88.99-.29,1.81,1.44,2.38,2.09.5.57,2.15,2.09,2.27,2.7.19.9-.62,1.7-1.18,2.34-1.61,1.86-3.53,3.54-5.07,5.35Z"/>
      <path class="cls-6" d="M736.72,941.74c-.09.09-.07.36-.18.47-.17.17-1.08,1.16-1.32.95-.61-1.32.41-2.45.42-3.59.01-1.04-.68-.97-1.35-1.39-.27-.17-.43-.43-.72-.59-.83-.44-2.19-.73-3.08-1.15-.97-.62.43-2,.76-2.56.95-1.58,1.95-3.14,2.79-4.79,1.06-.76,1.45-.75,2.59-.24,1.9.85,2.79,1.52,4.35,2.8,1.46,1.2,1.95.6,1.05,2.95-.77,2.01-2.09,3.44-3.37,5.08-.25.33-.34.84-.6,1.15-.31.37-1.15.74-1.33.93Z"/>
      <path class="cls-6" d="M733.71,927.45c.34.39-.46,2.01-.71,2.49-.68,1.29-2.48,4.1-3.41,5.19-.39.47-.83.52-1.42.41-.66-.12-1.33-.78-1.82-.95-.35-.12-.8-.05-1.23-.23-1.25-.51-2.41-1.21-3.67-1.69-.87-1.16.68-1.86,1.19-2.58.27-.38.3-.88.5-1.25.63-1.18,2-3.46,2.88-4.41,1.25-1.36,1.97-.84,3.34-.13,1.13.59,1.92,1.18,2.86,1.95.38.31,1.21.89,1.49,1.21Z"/>
      <path class="cls-6" d="M733.76,945.49c-.02,1.31-1.28,1.6-1.89,2.41-.46.61-.88,2.11-1.82,2.2-.32.03-1.54-.95-1.96-1.19-.7-.4-1.96-.45-1.9-1.52,1.2-.32,2.4-.98,3.6-1.28.35-.09.74.01,1.1-.07.45-.1,2.67-.84,2.88-.55Z"/>
    </g>
    <g>
      <path class="cls-6" d="M999.36,947.59c-.09-.05-1.36-1.22-1.57-1.41-.24-.22-2.54-2.82-2.84-2.48-.07.64.41,1.22.44,1.83.06,1-1.49,3.92-2.85,3.57-.3.92,1.38.77,1.97.94.64.18,1.62.92,2.29,1.21.73.31,1.72.46,2.33.73.67.3,2.88,3.78,3.51,4.65,2.18,3.01,4.51,6.13,6.38,9.37.6,1.03,1.79,1.71.28,2.78-.74.53-2.04,1.42-2.84,1.83-.17.09-1.5.36-1.17.65,1,.35,2.07,0,2.98.01s.56,1.22.67,1.8c.04.24.22.43.25.63.69,4.06.71,8.2,1.06,12.29l.44-.09c-.04-.57.05-1.17,0-1.74-.29-3-.63-7.35-.27-10.34.04-.34.18-.93.42-1.19.4-.45,2.31-.75,2.03-1.58-.52-.49-1.53-1-1.85-1.66-.21-.45-.15-.96-.32-1.43-.69-1.93-2.25-6.34-3.43-7.79-.64-.78-1.71-1.61-2.32-2.34s-1.33-1.93-1.92-2.75c-.22-.3-1.62-1.47-.57-1.62,1.67.1,3.15.35,4.76.78,1.03.27,3.69.95,4.53,1.31.46.2,2.09,1.64,2.59,2.07,1.12.95,2.12,2.09,3.28,3l7-5.99c.17-.02.29.1.34.25.08.26-.21,2.21-.3,2.57-.16.61-.94,1.73-.99,2.24-.05.48.28.73.3,1.15.06,1.24-1.48,7.01-2.2,8.02-.4.56-1.34,1.31-1.67,1.83-.24.38-.21.78-.45,1.16-.27.43-1.04.96-1.3,1.32-.99,1.38-.59,3.01-.66,4.6-.17,4.06.05,8.25-.43,12.25-.07.57.23,1.89-.41,2.07l-21.7.03c-.55-.17-1.57-.43-1.75-1.02-.15-.49-.13-2.84-.05-3.42.22-1.63,1.01-3.7,1.28-5.42.4-2.54.51-5.14.93-7.68.15-.9.63-1.61.36-2.63-.06-.23-1.25-2.24-1.47-2.61-.78-1.28-3.49-4.45-3.66-5.65-.04-.26.16-.71.05-.88-.08-.12-1.38-.21-1.88-.82-.31-.37-1.2-1.82-1.49-2.31-.38-.66-.91-2.21-1.28-2.66-.23-.28-.7-.31-.95-.65-.28-.39-.22-1.11-.51-1.38-.18-.17-.56-.18-.8-.36-.41-.3-2.17-2.82-2.46-3.37-.5-.93.26-1.19.67-1.92.2-.36.28-.76.49-1.11.24-.41.92-.97,1.01-1.18.15-.34.03-.71.11-1.06.2-.84,1.78-2.5,2.3-3.24,1.56-2.24,2.8-4.83,4.59-6.93,1.2-1.41,1.9-1.33,3.6-.68,1.18.45,2.8,1.55,3.91,1.92.56.19,1.25.12,1.74.3.28.1.68.51,1.07.68,1.71.73,3.68,1.23,5.3,2.13,1.03.58,1.84,1.08,1.62,2.4-.09.5-.5,2.06-.69,2.52-.77,1.83-3.07,1.48-4.56,1.85-.92.23-2.16,1.28-3.28.66Z"/>
      <path class="cls-6" d="M1007.58,949.92c.81-1.06,1.79-3.01,2.56-4.22.69-1.09,1.29-2.21,1.95-3.3,1.09-1.78,2.85-3.19,3.41-5.34.22-.16.73.1.98.2,2.2.94,3.79,2.96,5.71,4.35l.26,1.08c-1.51,3.36-4.02,6.17-6.42,8.9-.65.99-2.08,3.09-3.16,3.56-.56.24-1.27-.58-1.7-.77-.32-.14-.7-.11-.94-.22-.67-.31-3.74-1.82-3.89-2.39-.07-.26.58-1.21.79-1.5.13-.18.37-.23.45-.34Z"/>
      <path class="cls-6" d="M1021.74,956.63c-.18.21-1.88,1-2.28,1.29-1.23.89-1.46,2.21-3,.94-.58-.48-.76-.99-1.14-1.42-.5-.56-1.56-1.01-1.42-1.86.02-.13,1.4-1.71,1.6-1.91.23-.22.6-.29.7-.39.16-.17.13-.59.26-.83.15-.27,1.47-2,1.75-2.33,1.11-1.37,2.7-2.71,3.79-4.09.33-.42.88-1.74,1.34-1.88.99-.29,1.81,1.44,2.38,2.09.5.57,2.15,2.09,2.27,2.7.19.9-.62,1.7-1.18,2.34-1.61,1.86-3.53,3.54-5.07,5.35Z"/>
      <path class="cls-6" d="M1009.72,943.74c-.09.09-.07.36-.18.47-.17.17-1.08,1.16-1.32.95-.61-1.32.41-2.45.42-3.59.01-1.04-.68-.97-1.35-1.39-.27-.17-.43-.43-.72-.59-.83-.44-2.19-.73-3.08-1.15-.97-.62.43-2,.76-2.56.95-1.58,1.95-3.14,2.79-4.79,1.06-.76,1.45-.75,2.59-.24,1.9.85,2.79,1.52,4.35,2.8,1.46,1.2,1.95.6,1.05,2.95-.77,2.01-2.09,3.44-3.37,5.08-.25.33-.34.84-.6,1.15-.31.37-1.15.74-1.33.93Z"/>
      <path class="cls-6" d="M1006.71,929.45c.34.39-.46,2.01-.71,2.49-.68,1.29-2.48,4.1-3.41,5.19-.39.47-.83.52-1.42.41-.66-.12-1.33-.78-1.82-.95-.35-.12-.8-.05-1.23-.23-1.25-.51-2.41-1.21-3.67-1.69-.87-1.16.68-1.86,1.19-2.58.27-.38.3-.88.5-1.25.63-1.18,2-3.46,2.88-4.41,1.25-1.36,1.97-.84,3.34-.13,1.13.59,1.92,1.18,2.86,1.95.38.31,1.21.89,1.49,1.21Z"/>
      <path class="cls-6" d="M1006.76,947.49c-.02,1.31-1.28,1.6-1.89,2.41-.46.61-.88,2.11-1.82,2.2-.32.03-1.54-.95-1.96-1.19-.7-.4-1.96-.45-1.9-1.52,1.2-.32,2.4-.98,3.6-1.28.35-.09.74.01,1.1-.07.45-.1,2.67-.84,2.88-.55Z"/>
    </g>
    <polygon class="cls-26" points="1126.02 852.08 959.36 901.07 863.02 852.08 705.02 898.08 645.02 864.08 567.02 867.08 507.02 803.08 420.02 839.08 420.02 804.08 456.02 688.08 489.02 698.08 514.02 684.08 542.02 584.08 527.02 565.08 507.02 558.08 619.02 216.58 1125.52 216.58 1126.02 852.08"/>
    <text class="cls-19" transform="translate(616.37 306.41)"><tspan x="0" y="0">†</tspan></text>
    <text class="cls-19" transform="translate(442.37 811.41)"><tspan x="0" y="0">Ä </tspan></text>
    <text class="cls-19" transform="translate(586.37 378.41)"><tspan x="0" y="0">Á</tspan></text>
    <text class="cls-19" transform="translate(538.37 558.41)"><tspan x="0" y="0" xml:space="preserve">Ð  $  @  &amp;  »  VTF  ﬀ  ﬃ  ﬄ</tspan></text>
    <text class="cls-19" transform="translate(546.37 667.41)"><tspan x="0" y="0" xml:space="preserve">Ý  1  2  3  4  5  6  7  8  9  €</tspan></text>
    <text class="cls-19" transform="translate(565.37 470.41) scale(.95 1)"><tspan x="0" y="0" xml:space="preserve">Š ‰ ‡  œ   ¿   ß   Æ  ﬂ  * </tspan></text>
    <text/>
    <text class="cls-19" transform="translate(673.02 299.54) scale(1.06 1)"><tspan x="0" y="0">§</tspan></text>
    <text class="cls-19" transform="translate(738.69 307.54)"><tspan x="0" y="0">æ</tspan></text>
    <text class="cls-19" transform="translate(806.69 306.54)"><tspan x="0" y="0" xml:space="preserve">%  @  #  !  &amp;</tspan></text>
    <text class="cls-19" transform="translate(624.69 378.54)"><tspan x="0" y="0" xml:space="preserve"> Ä   Å   á   à    â   ã  å</tspan></text>
    <text class="cls-19" transform="translate(480.73 763.52)"><tspan x="0" y="0" xml:space="preserve">æ  ć  ĉ  ċ  č  ē  ĕ  ė  ę  ě  ĝ  ġ</tspan></text>
    <text class="cls-19" transform="translate(573.44 847.54)"><tspan x="0" y="0">M</tspan></text>
    <text class="cls-19" transform="translate(676.54 867.96)"><tspan x="0" y="0">M</tspan></text>
    <text class="cls-19" transform="translate(809.54 851.96)"><tspan x="0" y="0">N</tspan></text>
    <text class="cls-19" transform="translate(952.54 880.96)"><tspan x="0" y="0">K</tspan></text>
    <text class="cls-19" transform="translate(886.54 856.96)"><tspan x="0" y="0">M</tspan></text>
    <text class="cls-19" transform="translate(1047.97 851.77)"><tspan x="0" y="0">$</tspan></text>
    <image width="842" height="1191" transform="translate(98.58) rotate(6.19) scale(.77)" xlink:href="../../Desktop/Site Le murmure/Megaphonne.png"/>
  </g>
</svg>